<?xml version="1.0" encoding="UTF-8"?>
<svg xmlns="http://www.w3.org/2000/svg" viewBox="0 0 5963 722" role="img" aria-label="The Grassy Issue">
  <title>The Grassy Issue</title>
  <g transform="translate(0,682) scale(1,-1)">
    <g fill="#0E0E0E"><path transform="translate(0.0,0)" d="M331 574Q341 574 381.5 581.5Q422 589 427 590Q445 592 448 592Q460 592 461 585Q466 573 463 567Q463 563 468 563Q472 563 470.0 558.0Q468 553 473.0 553.0Q478 553 476.0 549.0Q474 545 471.0 541.5Q468 538 472 537Q478 537 476 523Q475 512 466.5 504.0Q458 496 447 496Q437 496 434 491Q430 485 426 488Q421 491 421 487Q421 481 410 481Q369 481 360 472Q353 465 359 444Q362 430 362 424Q362 420 360.5 411.0Q359 402 359 393V383Q360 366 362 187Q364 59 365.0 28.5Q366 -2 372 -16Q373 -18 373.0 -21.0Q373 -24 370.0 -31.0Q367 -38 367 -42Q367 -45 368 -47Q372 -55 363 -70Q355 -86 358 -89L359 -90Q359 -92 317 -93Q295 -94 294 -84Q292 -75 281 -62Q273 -53 271.0 -28.0Q269 -3 269 116Q269 281 265 289Q262 294 269.5 298.0Q277 302 272 308Q265 317 267 337V345Q267 382 262.0 413.5Q257 445 250 450Q248 451 243 451Q229 451 194 435Q170 424 163 424Q160 423 146.5 419.0Q133 415 121.5 412.5Q110 410 99 410Q98 410 94.0 410.5Q90 411 89 411Q72 413 65.5 416.5Q59 420 54 430Q45 444 45 455Q45 459 43.0 462.0Q41 465 39 464Q36 463 35.0 464.5Q34 466 34.0 469.0Q34 472 34.5 475.0Q35 478 36.0 482.0Q37 486 37 487Q37 494 55.0 506.0Q73 518 86 520Q90 521 104.5 525.5Q119 530 132.0 533.5Q145 537 153 538Q157 539 163.0 540.0Q169 541 173.0 541.5Q177 542 179 543Q189 547 253.5 560.0Q318 573 331 574Z"/><path transform="translate(508.0,0)" d="M278 631Q285 639 289 639Q292 639 297.0 634.5Q302 630 307 630Q310 630 312 631Q324 635 337 618Q345 607 348.0 594.5Q351 582 353 546Q355 512 365.5 439.0Q376 366 379 323Q385 213 395 178Q398 167 401.0 130.5Q404 94 407 83Q409 69 409 63Q409 56 407 52Q402 44 407.0 44.0Q412 44 412 27Q412 7 407 -4Q401 -19 387 -26Q377 -31 374 -31Q369 -31 356 -19Q340 -3 340 6Q340 17 335 20Q331 23 335.5 30.0Q340 37 338.0 39.0Q336 41 323.0 135.5Q310 230 310 240Q310 253 307.0 281.5Q304 310 302 312H301Q296 312 280.0 304.5Q264 297 262 297Q257 297 213 277Q165 255 150 252Q132 248 127 233Q125 223 125 204Q125 160 132 91Q134 63 134 60Q134 46 130 43Q128 41 122.0 26.5Q116 12 109.0 12.0Q102 12 96.5 6.5Q91 1 89 1Q85 1 75 11Q63 25 59 44Q46 128 43 272Q40 374 33 511Q32 519 32 533Q32 574 51 575Q67 577 70 580H72Q80 580 95.5 561.0Q111 542 115 528Q122 492 125 398Q128 333 140 333Q142 333 168.0 346.5Q194 360 198 360Q204 360 234 373Q261 385 278 385Q284 385 287.0 385.5Q290 386 292.0 389.0Q294 392 294 398Q294 405 289 433Q283 468 281 495Q279 527 275 544Q271 566 271 584Q271 622 278 631Z"/><path transform="translate(952.0,0)" d="M104 605Q115 611 161 611Q187 611 205 610L292 608L304 594Q315 579 312 576Q308 572 316 564Q320 559 317.0 556.0Q314 553 300 546Q269 531 180 528Q110 523 110 513Q110 511 111 510Q115 503 120 355Q121 329 123.5 321.5Q126 314 136 314Q144 314 159 317Q173 319 185 319Q210 319 274 311Q283 310 288.5 304.0Q294 298 294 292Q294 289 290 283Q284 277 282 267Q281 260 271.5 252.5Q262 245 254 245Q250 245 249 246Q241 251 233 246Q226 242 179 238L132 236Q132 154 137 111Q138 104 138.5 85.5Q139 67 139 60L140 33L167 36Q197 40 243 40H264Q293 40 301 28Q309 17 309 7Q309 -32 197 -37Q151 -39 141 -44Q132 -48 129 -47Q128 -45 92.0 -43.0Q56 -41 50 -35Q45 -30 45 11Q45 41 46 63Q48 177 48 217Q48 381 34 516Q30 539 36 543Q40 546 44 564Q46 577 49.5 580.5Q53 584 61 582Q63 582 68.0 590.0Q73 598 82 598Q92 598 104 605Z"/><path transform="translate(4329.0,0)" d="M53 612Q70 624 79 620Q119 609 128 395Q130 376 133.0 373.0Q136 370 132 355Q130 343 130 328V316Q130 309 133.5 230.5Q137 152 141 123Q144 97 144 82Q144 48 128 48H126H123Q118 48 111.0 44.0Q104 40 101 40Q97 40 90 48Q81 59 75 59Q64 59 61 101L59 129L58 132Q58 136 57.5 142.5Q57 149 56 155Q54 179 48 198Q42 215 48 221Q52 225 43 247Q34 266 38 276Q40 279 40 306V328Q40 365 44 368Q49 371 43 378Q36 386 43 402Q51 418 45 421Q36 428 36 447Q36 454 38 455Q43 458 41 469Q32 514 32 542Q32 577 36.5 590.5Q41 604 53 612Z"/><path transform="translate(4503.0,0)" d="M73 401Q73 408 66 412Q61 415 56.0 435.5Q51 456 51 471Q51 480 53 482Q58 487 58 509Q58 546 88.0 586.5Q118 627 147 629Q169 631 177 635Q188 639 200 637Q242 632 258.5 623.5Q275 615 295 585Q310 563 310 536Q310 513 298.5 497.0Q287 481 269 481Q262 481 254 484Q244 488 241.0 495.5Q238 503 230 537L225 554Q222 558 212 558Q195 558 179.0 550.0Q163 542 158 542Q141 542 132 501Q128 486 128 472Q128 448 153 426Q175 408 180 408Q184 408 209.5 383.5Q235 359 246 345Q254 334 268.0 301.5Q282 269 289 242Q303 188 303 127Q303 114 301 112Q298 110 298 85Q298 57 287 36Q274 11 278 11L279 10Q279 2 228 -31Q199 -51 148 -51Q128 -51 116 -47Q98 -42 97 -42Q94 -42 79.5 -28.5Q65 -15 56 -4Q47 8 39 55Q34 88 34 95Q34 107 43 126Q56 151 58 151Q66 151 72.0 146.5Q78 142 78 137Q78 130 83 130Q90 130 97.0 112.0Q104 94 107 71Q111 42 117 37Q125 31 125.0 34.0Q125 37 131 34Q137 29 158 31Q200 34 212 90Q220 116 223 118Q228 121 228 155Q228 192 214 221Q199 253 199 260Q196 272 188 281Q176 295 176 298Q176 303 161.0 319.5Q146 336 141 336Q135 336 135 340Q135 343 119.5 351.5Q104 360 104.0 364.0Q104 368 88.5 382.0Q73 396 73 401Z"/><path transform="translate(4845.0,0)" d="M73 401Q73 408 66 412Q61 415 56.0 435.5Q51 456 51 471Q51 480 53 482Q58 487 58 509Q58 546 88.0 586.5Q118 627 147 629Q169 631 177 635Q188 639 200 637Q242 632 258.5 623.5Q275 615 295 585Q310 563 310 536Q310 513 298.5 497.0Q287 481 269 481Q262 481 254 484Q244 488 241.0 495.5Q238 503 230 537L225 554Q222 558 212 558Q195 558 179.0 550.0Q163 542 158 542Q141 542 132 501Q128 486 128 472Q128 448 153 426Q175 408 180 408Q184 408 209.5 383.5Q235 359 246 345Q254 334 268.0 301.5Q282 269 289 242Q303 188 303 127Q303 114 301 112Q298 110 298 85Q298 57 287 36Q274 11 278 11L279 10Q279 2 228 -31Q199 -51 148 -51Q128 -51 116 -47Q98 -42 97 -42Q94 -42 79.5 -28.5Q65 -15 56 -4Q47 8 39 55Q34 88 34 95Q34 107 43 126Q56 151 58 151Q66 151 72.0 146.5Q78 142 78 137Q78 130 83 130Q90 130 97.0 112.0Q104 94 107 71Q111 42 117 37Q125 31 125.0 34.0Q125 37 131 34Q137 29 158 31Q200 34 212 90Q220 116 223 118Q228 121 228 155Q228 192 214 221Q199 253 199 260Q196 272 188 281Q176 295 176 298Q176 303 161.0 319.5Q146 336 141 336Q135 336 135 340Q135 343 119.5 351.5Q104 360 104.0 364.0Q104 368 88.5 382.0Q73 396 73 401Z"/><path transform="translate(5187.0,0)" d="M37 529 43 548 69 546Q94 542 101 537Q106 532 112.0 510.0Q118 488 118 475Q118 473 117.5 470.5Q117 468 117 467Q117 462 122.5 442.0Q128 422 128 420Q128 416 136.0 363.5Q144 311 146 290Q147 274 151.5 253.5Q156 233 157 219Q165 157 191 108Q196 100 196 92Q196 88 207.0 77.0Q218 66 222.0 66.0Q226 66 231 62Q239 56 258 54Q261 54 264.5 53.5Q268 53 269 53Q279 53 284 65Q314 139 317 158Q320 178 320 224Q320 306 312 412Q308 478 308 485Q308 516 317 527Q326 537 346 537Q363 537 375 528Q383 522 385.0 511.5Q387 501 389 462Q391 403 394 398Q398 390 398 327Q398 307 397 303Q395 297 396 295L398 236Q398 134 388 109Q386 105 386 98V89Q386 84 383 76Q382 75 374.0 57.0Q366 39 358.5 27.0Q351 15 346 13Q342 11 318 -6Q303 -17 292.0 -19.0Q281 -21 232 -22H165L152 -7Q142 6 135 24Q128 46 114 78Q80 159 75 218Q69 280 57 341Q47 394 44 424Q38 488 36 488Q33 488 33 500Q33 517 37 529Z"/><path transform="translate(5613.0,0)" d="M104 605Q115 611 161 611Q187 611 205 610L292 608L304 594Q315 579 312 576Q308 572 316 564Q320 559 317.0 556.0Q314 553 300 546Q269 531 180 528Q110 523 110 513Q110 511 111 510Q115 503 120 355Q121 329 123.5 321.5Q126 314 136 314Q144 314 159 317Q173 319 185 319Q210 319 274 311Q283 310 288.5 304.0Q294 298 294 292Q294 289 290 283Q284 277 282 267Q281 260 271.5 252.5Q262 245 254 245Q250 245 249 246Q241 251 233 246Q226 242 179 238L132 236Q132 154 137 111Q138 104 138.5 85.5Q139 67 139 60L140 33L167 36Q197 40 243 40H264Q293 40 301 28Q309 17 309 7Q309 -32 197 -37Q151 -39 141 -44Q132 -48 129 -47Q128 -45 92.0 -43.0Q56 -41 50 -35Q45 -30 45 11Q45 41 46 63Q48 177 48 217Q48 381 34 516Q30 539 36 543Q40 546 44 564Q46 577 49.5 580.5Q53 584 61 582Q63 582 68.0 590.0Q73 598 82 598Q92 598 104 605Z"/></g>
    <g fill="#1F3A2B"><path transform="translate(1552.0,0)" d="M270 -24Q266 -24 256.0 -34.0Q246 -44 242 -44H241Q238 -44 230.5 -46.0Q223 -48 219 -48Q213 -48 209 -45Q201 -39 196 -42Q195 -43 192 -43Q174 -43 133.0 -11.0Q92 21 92 36Q92 40 85.0 49.0Q78 58 78 62Q78 77 71 91Q61 111 64 112Q66 116 61 130Q54 148 48 188Q38 242 37 283Q33 361 33 366Q33 372 36.5 378.0Q40 384 40 390Q40 413 42.0 417.0Q44 421 48 466Q51 502 62.0 542.5Q73 583 80 586Q87 590 87.0 595.0Q87 600 100.5 610.0Q114 620 123 622Q130 624 133 628Q137 634 160 641Q184 650 212 650Q232 650 232 644Q232 637 239 644Q245 650 257.0 650.0Q269 650 269.0 644.0Q269 638 276 641H278Q293 641 332 592Q361 553 361 540Q361 539 360.5 537.5Q360 536 360 535Q359 530 362 528Q363 529 365 529Q368 529 368 520Q368 510 365 497Q361 482 358.0 479.0Q355 476 342 476Q328 477 308.5 489.0Q289 501 289 509Q289 513 282 520Q274 528 274 539Q274 570 231 570H223Q161 566 159 556Q158 554 158.0 551.0Q158 548 158 547Q158 543 144 531Q131 522 125 492Q120 462 120 460Q120 459 120 458L121 456Q125 449 119.0 445.0Q113 441 113 423Q113 403 108 386Q102 366 102 321Q102 296 105 279Q109 256 108 247Q108 237 116.5 216.5Q125 196 126 189Q129 168 144.5 126.5Q160 85 165 85Q169 85 173 75Q177 64 189 51Q201 39 216 39Q233 39 251 54Q269 68 278 74Q295 87 311 142Q319 168 324 174Q334 185 334 226Q334 258 327 275L316 300H271Q223 300 218 304Q209 310 209 328Q209 341 215 349Q222 357 237.5 363.0Q253 369 267 369Q273 369 276 368H278Q280 367 281 367Q295 367 313 376Q339 387 356 389Q375 391 381 397Q389 403 400.0 405.0Q411 407 415 411Q416 412 420 412Q445 412 471 395Q483 387 479 374Q476 360 468 360Q462 360 456.0 350.0Q450 340 434 341Q420 342 415 334Q411 324 411 252Q411 178 408 178Q407 178 405.0 158.0Q403 138 396.0 119.5Q389 101 375.0 77.0Q361 53 357 46Q353 38 338.0 25.0Q323 12 317 12Q314 12 293.5 -6.0Q273 -24 270 -24Z"/><path transform="translate(2064.0,0)" d="M219 546Q169 549 150 549Q123 549 123.0 541.0Q123 533 128.0 530.0Q133 527 135 415L136 367L152 366H160Q215 366 239 390Q248 399 256.0 431.5Q264 464 264 488Q264 497 262 505Q255 522 243.0 533.5Q231 545 219 546ZM183 652Q184 654 189.0 654.0Q194 654 205 650L216 647Q254 641 277.0 627.5Q300 614 329 581Q354 552 354 541Q354 519 359 516Q366 511 362 504Q359 500 356.5 460.0Q354 420 353 416Q351 404 351 392Q349 377 342.0 377.0Q335 377 335.0 370.0Q335 363 323.0 349.0Q311 335 302 331Q295 328 295 327Q296 324 303 318Q318 303 333 251Q335 246 341.0 235.0Q347 224 349 215Q354 178 360 163Q366 149 370.5 136.5Q375 124 377.5 116.5Q380 109 379 109Q376 109 383 95Q388 86 388 77Q388 65 375 48Q364 33 354 38Q345 43 338 41H336Q329 41 314.5 57.0Q300 73 297 84Q293 101 277.0 143.5Q261 186 251 207Q250 210 245 233Q241 254 229.5 271.0Q218 288 209 288Q206 288 204.0 286.0Q202 284 169 282H136L135 181Q133 71 132 59Q126 23 116 23Q115 23 114 24Q112 26 105 21Q100 18 93 18Q72 18 72 27Q72 34 60 49Q50 63 50 84V94Q51 111 53.5 226.5Q56 342 57 359V376Q57 467 46 504Q41 520 42 529Q42 534 38.5 560.0Q35 586 35 600Q35 624 45 625Q68 628 71 635Q77 648 93 648Q98 648 100 646Q107 641 121 644Q131 647 151 647H158Q179 645 183 652Z"/><path transform="translate(2484.0,0)" d="M214 513Q216 519 210.0 523.0Q204 527 200 523Q197 520 197.0 498.0Q197 476 191.0 472.0Q185 468 187 449Q189 429 185.0 429.0Q181 429 181 412Q181 400 175.5 380.5Q170 361 165 357Q163 355 159 330Q157 314 157 313Q157 307 159.5 306.0Q162 305 170 305Q185 305 191 311Q198 318 209 318Q224 319 236.0 323.5Q248 328 248 333Q248 341 236 377Q226 411 226 423Q226 432 232.0 443.0Q238 454 230 457Q225 460 225.5 465.0Q226 470 222.0 473.0Q218 476 219.0 485.0Q220 494 217 499Q211 507 214 513ZM211 684H212Q217 684 232.5 666.5Q248 649 248.0 643.0Q248 637 261 613Q273 591 277 567Q281 544 286 537Q292 529 292 509Q292 488 297 485Q299 484 303 457Q305 433 312 419Q324 395 328 359Q331 332 345 295Q350 280 353 236Q355 205 362 189Q369 175 367 169Q365 165 372 158Q378 150 375 138Q371 126 377 122Q382 119 382 105V99Q382 62 396 29Q404 8 404 -8Q404 -12 402 -42Q401 -53 400.0 -55.5Q399 -58 395.5 -59.5Q392 -61 385 -59Q371 -55 360 -62Q352 -67 347 -55Q341 -42 331 -33Q320 -23 326 -16Q331 -10 322 7Q314 21 312 35Q308 61 303 78Q303 83 299 87Q295 90 295 112Q295 133 291 137Q286 140 286 157Q284 189 278 195Q274 199 274 215Q274 226 266.5 236.0Q259 246 253 246Q250 246 248 243Q244 237 237 239Q230 242 216.0 235.0Q202 228 202 230H201Q198 230 183 224L168 218Q166 218 146 209Q132 203 129.5 200.0Q127 197 130 189Q134 180 132 175Q129 172 129 147Q129 121 124 108Q118 94 124 87Q131 80 126 76Q122 73 120 36Q119 -2 108 -13L97 -25L86 -14Q76 -4 69 -4Q66 -4 59.0 7.5Q52 19 49 19H48Q47 18 45 18Q36 18 33 72V85Q33 116 37 122Q42 129 38.0 132.0Q34 135 34 149Q34 197 52 229Q57 238 61 260Q65 284 68 287Q72 294 76.5 311.0Q81 328 84 334Q91 349 89.0 358.0Q87 367 93.0 367.0Q99 367 99 379Q99 389 107 401Q112 408 110.5 414.5Q109 421 114 424Q122 429 116 435Q109 442 116 452Q124 465 127 510Q129 537 134 544Q137 547 137 555Q137 558 136.5 562.0Q136 566 136.0 569.0Q136 572 138 578Q142 585 143.5 591.0Q145 597 146.5 606.5Q148 616 151 625Q155 636 158.0 647.0Q161 658 163 665Q166 680 185 680H189Q203 679 211 684Z"/><path transform="translate(2919.0,0)" d="M73 401Q73 408 66 412Q61 415 56.0 435.5Q51 456 51 471Q51 480 53 482Q58 487 58 509Q58 546 88.0 586.5Q118 627 147 629Q169 631 177 635Q188 639 200 637Q242 632 258.5 623.5Q275 615 295 585Q310 563 310 536Q310 513 298.5 497.0Q287 481 269 481Q262 481 254 484Q244 488 241.0 495.5Q238 503 230 537L225 554Q222 558 212 558Q195 558 179.0 550.0Q163 542 158 542Q141 542 132 501Q128 486 128 472Q128 448 153 426Q175 408 180 408Q184 408 209.5 383.5Q235 359 246 345Q254 334 268.0 301.5Q282 269 289 242Q303 188 303 127Q303 114 301 112Q298 110 298 85Q298 57 287 36Q274 11 278 11L279 10Q279 2 228 -31Q199 -51 148 -51Q128 -51 116 -47Q98 -42 97 -42Q94 -42 79.5 -28.5Q65 -15 56 -4Q47 8 39 55Q34 88 34 95Q34 107 43 126Q56 151 58 151Q66 151 72.0 146.5Q78 142 78 137Q78 130 83 130Q90 130 97.0 112.0Q104 94 107 71Q111 42 117 37Q125 31 125.0 34.0Q125 37 131 34Q137 29 158 31Q200 34 212 90Q220 116 223 118Q228 121 228 155Q228 192 214 221Q199 253 199 260Q196 272 188 281Q176 295 176 298Q176 303 161.0 319.5Q146 336 141 336Q135 336 135 340Q135 343 119.5 351.5Q104 360 104.0 364.0Q104 368 88.5 382.0Q73 396 73 401Z"/><path transform="translate(3261.0,0)" d="M73 401Q73 408 66 412Q61 415 56.0 435.5Q51 456 51 471Q51 480 53 482Q58 487 58 509Q58 546 88.0 586.5Q118 627 147 629Q169 631 177 635Q188 639 200 637Q242 632 258.5 623.5Q275 615 295 585Q310 563 310 536Q310 513 298.5 497.0Q287 481 269 481Q262 481 254 484Q244 488 241.0 495.5Q238 503 230 537L225 554Q222 558 212 558Q195 558 179.0 550.0Q163 542 158 542Q141 542 132 501Q128 486 128 472Q128 448 153 426Q175 408 180 408Q184 408 209.5 383.5Q235 359 246 345Q254 334 268.0 301.5Q282 269 289 242Q303 188 303 127Q303 114 301 112Q298 110 298 85Q298 57 287 36Q274 11 278 11L279 10Q279 2 228 -31Q199 -51 148 -51Q128 -51 116 -47Q98 -42 97 -42Q94 -42 79.5 -28.5Q65 -15 56 -4Q47 8 39 55Q34 88 34 95Q34 107 43 126Q56 151 58 151Q66 151 72.0 146.5Q78 142 78 137Q78 130 83 130Q90 130 97.0 112.0Q104 94 107 71Q111 42 117 37Q125 31 125.0 34.0Q125 37 131 34Q137 29 158 31Q200 34 212 90Q220 116 223 118Q228 121 228 155Q228 192 214 221Q199 253 199 260Q196 272 188 281Q176 295 176 298Q176 303 161.0 319.5Q146 336 141 336Q135 336 135 340Q135 343 119.5 351.5Q104 360 104.0 364.0Q104 368 88.5 382.0Q73 396 73 401Z"/><path transform="translate(3603.0,0)" d="M94 455Q94 460 82 474Q38 523 35 543Q34 547 34 554Q34 565 43 574Q53 584 55 591Q57 599 64 599Q70 599 85 596Q125 588 125 573Q125 565 138.0 558.0Q151 551 161 534Q171 516 177 516Q182 516 182 508Q183 499 195.5 484.0Q208 469 219 465Q225 463 226 463Q234 463 249 492Q266 527 278 540Q292 560 297 574Q306 593 318 597Q333 601 337 610Q343 621 352 618Q362 615 365 628Q368 638 377.5 647.5Q387 657 397 657Q399 657 405 655Q408 654 414.0 652.0Q420 650 424.0 648.5Q428 647 431.0 643.5Q434 640 434 635Q434 626 440 622Q445 619 445 615Q445 606 424.0 585.0Q403 564 403 559Q403 556 383 534Q362 515 360 501Q359 492 347.5 477.5Q336 463 334 457Q329 443 311 423Q290 400 290.0 396.0Q290 392 274 376Q260 362 260 351Q260 338 257 327Q253 315 253 224Q253 201 253.5 159.5Q254 118 254 105Q254 81 257.5 65.5Q261 50 262 28Q264 -11 270 -32Q275 -58 270 -60Q264 -62 264 -69Q264 -75 256.0 -89.5Q248 -104 244 -104H243Q241 -102 230 -107Q224 -110 218 -110Q205 -110 194.0 -97.0Q183 -84 183 -67Q183 -60 186 -52Q190 -40 190 -27Q190 -20 189 -17Q183 30 179 187Q177 296 175 326Q173 352 173 363Q172 374 159.0 390.0Q146 406 131 413Q120 420 120.0 424.0Q120 428 107.0 440.0Q94 452 94 455Z"/></g>
  </g>
</svg>
